<?xml version="1.0" encoding="UTF-8" standalone="no"?>
<!-- Created with Inkscape (http://www.inkscape.org/) -->

<svg
   width="48"
   height="48"
   viewBox="0 0 48 48"
   version="1.1"
   id="svg5"
   xml:space="preserve"
   xmlns="http://www.w3.org/2000/svg"
   xmlns:svg="http://www.w3.org/2000/svg"><defs
     id="defs2"><mask
       maskUnits="userSpaceOnUse"
       id="mask1344"><g
         id="g1352"
         style="display:inline"><rect
           style="opacity:1;fill:#ffffff;stroke:none;stroke-width:1;stroke-linecap:round;stroke-linejoin:round;stroke-miterlimit:10"
           id="rect1346"
           width="48"
           height="48"
           x="0"
           y="0" /><text
           xml:space="preserve"
           style="font-weight:bold;font-size:5.33333px;font-family:'Open Sans';-inkscape-font-specification:'Open Sans Bold';text-align:center;text-anchor:middle;opacity:1;fill:#000000;stroke:#000000;stroke-width:2;stroke-linecap:round;stroke-linejoin:round;stroke-miterlimit:10"
           x="23.915365"
           y="5.9049468"
           id="text1350"><tspan
             id="tspan1348"
             x="23.915365"
             y="5.9049468"
             style="font-size:5.33333px;fill:#000000;stroke:#000000;stroke-width:2">I MAY BE STUPID</tspan></text></g></mask></defs><g
     id="layer1"><path
       id="path1368"
       style="font-weight:bold;font-size:5.33333px;font-family:'Open Sans';-inkscape-font-specification:'Open Sans Bold';text-align:center;text-anchor:middle;display:inline;opacity:1;fill:#000000;stroke:none;stroke-linecap:round;stroke-linejoin:round;stroke-miterlimit:10"
       d="M 28.197266 2.0429688 C 27.933377 2.0429687 27.70421 2.0870227 27.509766 2.1738281 C 27.317058 2.2588974 27.16862 2.3815107 27.064453 2.5429688 C 26.960287 2.7044269 26.908203 2.899523 26.908203 3.1269531 C 26.908203 3.300564 26.93902 3.4492189 26.998047 3.5742188 C 27.05881 3.6974824 27.134766 3.8018664 27.228516 3.8886719 C 27.322266 3.9754773 27.421224 4.0505644 27.525391 4.1113281 C 27.629557 4.1703559 27.725912 4.2200522 27.814453 4.2617188 C 27.955078 4.329427 28.082249 4.3921442 28.193359 4.4511719 C 28.306207 4.5101995 28.394744 4.5748698 28.458984 4.6425781 C 28.523218 4.7102864 28.554688 4.7912328 28.554688 4.8867188 C 28.554687 4.9648435 28.53646 5.0349392 28.5 5.0957031 C 28.463541 5.1564671 28.403862 5.2035593 28.322266 5.2382812 C 28.242404 5.2730032 28.137803 5.2910156 28.005859 5.2910156 C 27.814887 5.2910156 27.622178 5.2575953 27.427734 5.1933594 C 27.23329 5.1291234 27.04579 5.0583766 26.865234 4.9785156 L 26.865234 5.7285156 C 26.969401 5.778863 27.078776 5.8207468 27.193359 5.8554688 C 27.309679 5.8884547 27.429688 5.9142793 27.554688 5.9316406 C 27.681423 5.9490019 27.811415 5.9570312 27.943359 5.9570312 C 28.24197 5.9570313 28.494792 5.9125433 28.703125 5.8222656 C 28.913194 5.731988 29.072266 5.6022132 29.181641 5.4355469 C 29.291016 5.2688804 29.345703 5.0733503 29.345703 4.8476562 C 29.345703 4.6480038 29.309028 4.4813366 29.234375 4.3476562 C 29.159722 4.2122398 29.052951 4.0950519 28.914062 3.9960938 C 28.77691 3.8953995 28.610459 3.799045 28.416016 3.7070312 C 28.256293 3.6306422 28.123264 3.5631507 28.015625 3.5058594 C 27.909723 3.448568 27.829211 3.3908421 27.775391 3.3300781 C 27.723304 3.2675783 27.697266 3.189887 27.697266 3.0996094 C 27.697266 3.0232203 27.715493 2.9576819 27.751953 2.9003906 C 27.788411 2.841363 27.842882 2.7949218 27.914062 2.7636719 C 27.985243 2.7306859 28.071181 2.7148438 28.171875 2.7148438 C 28.315972 2.7148438 28.456815 2.73546 28.595703 2.7753906 C 28.734592 2.8135851 28.893012 2.8682727 29.068359 2.9394531 L 29.328125 2.3105469 C 29.131945 2.2237413 28.944227 2.1584199 28.763672 2.1132812 C 28.584853 2.0664066 28.395182 2.0429688 28.197266 2.0429688 z M 11.615234 2.0820312 L 10.271484 5.9042969 L 11.140625 5.9042969 L 11.416016 4.9980469 L 12.804688 4.9980469 L 13.080078 5.9042969 L 13.951172 5.9042969 L 12.601562 2.0820312 L 11.615234 2.0820312 z M 2.5703125 2.0976562 L 2.5703125 5.9042969 L 3.3769531 5.9042969 L 3.3769531 2.0976562 L 2.5703125 2.0976562 z M 5.7207031 2.0976562 L 5.7207031 5.9042969 L 6.4433594 5.9042969 L 6.4433594 4.1347656 C 6.4433594 4.0045575 6.4385853 3.8587237 6.4316406 3.6972656 C 6.4246966 3.5358075 6.4168838 3.3825952 6.4082031 3.2402344 C 6.4012598 3.0961374 6.3960515 2.9891492 6.3925781 2.9179688 L 6.4160156 2.9179688 L 7.3339844 5.9042969 L 8.0722656 5.9042969 L 9.0546875 2.9238281 L 9.078125 2.9238281 L 9.0625 3.2441406 C 9.055554 3.3847654 9.0501285 3.5332033 9.0449219 3.6894531 C 9.0414485 3.8457029 9.0390625 3.9837242 9.0390625 4.1035156 L 9.0390625 5.9042969 L 9.7910156 5.9042969 L 9.7910156 2.0976562 L 8.6933594 2.0976562 L 7.7363281 5.0097656 L 7.7207031 5.0097656 L 6.8203125 2.0976562 L 5.7207031 2.0976562 z M 13.951172 2.0976562 L 15.212891 4.4492188 L 15.212891 5.9042969 L 16.015625 5.9042969 L 16.015625 4.4238281 L 17.279297 2.0976562 L 16.408203 2.0976562 L 15.615234 3.6660156 L 14.826172 2.0976562 L 13.951172 2.0976562 z M 19.142578 2.0976562 L 19.142578 5.9042969 L 20.568359 5.9042969 C 20.856553 5.9042969 21.104167 5.8621961 21.3125 5.7753906 C 21.522569 5.6868491 21.684028 5.5594616 21.796875 5.3945312 C 21.909722 5.229601 21.966797 5.0316837 21.966797 4.8007812 C 21.966797 4.6011288 21.935547 4.4420571 21.873047 4.3222656 C 21.812284 4.2007381 21.729384 4.1074218 21.626953 4.0449219 C 21.524523 3.9806862 21.409939 3.9361982 21.283203 3.9101562 L 21.283203 3.8847656 C 21.408203 3.8621962 21.514757 3.8129339 21.601562 3.7382812 C 21.688367 3.6636286 21.753688 3.5674911 21.798828 3.4511719 C 21.845701 3.3348526 21.869141 3.2046439 21.869141 3.0605469 C 21.869141 2.7029086 21.738932 2.4529078 21.478516 2.3105469 C 21.2181 2.168186 20.835069 2.0976562 20.328125 2.0976562 L 19.142578 2.0976562 z M 22.726562 2.0976562 L 22.726562 5.9042969 L 24.919922 5.9042969 L 24.919922 5.2382812 L 23.533203 5.2382812 L 23.533203 4.2558594 L 24.822266 4.2558594 L 24.822266 3.5957031 L 23.533203 3.5957031 L 23.533203 2.7597656 L 24.919922 2.7597656 L 24.919922 2.0976562 L 22.726562 2.0976562 z M 29.664062 2.0976562 L 29.664062 2.7695312 L 30.697266 2.7695312 L 30.697266 5.9042969 L 31.505859 5.9042969 L 31.505859 2.7695312 L 32.539062 2.7695312 L 32.539062 2.0976562 L 29.664062 2.0976562 z M 33.099609 2.0976562 L 33.099609 4.5507812 C 33.099609 4.9743917 33.230252 5.3153215 33.494141 5.5722656 C 33.758029 5.8292096 34.143013 5.9570312 34.646484 5.9570312 C 35.00065 5.9570313 35.292752 5.8947481 35.525391 5.7714844 C 35.759765 5.6482207 35.934245 5.4815535 36.048828 5.2714844 C 36.165147 5.0596791 36.224609 4.8226992 36.224609 4.5605469 L 36.224609 2.0976562 L 35.419922 2.0976562 L 35.419922 4.4238281 C 35.419922 4.6200083 35.393883 4.7814672 35.341797 4.9082031 C 35.289714 5.0349389 35.206814 5.1286892 35.095703 5.1894531 C 34.986329 5.2502171 34.843099 5.2792969 34.666016 5.2792969 C 34.41428 5.2792969 34.224175 5.2165797 34.095703 5.0898438 C 33.967231 4.9631079 33.904297 4.74197 33.904297 4.4277344 L 33.904297 2.0976562 L 33.099609 2.0976562 z M 37.15625 2.0976562 L 37.15625 5.9042969 L 37.962891 5.9042969 L 37.962891 4.5507812 L 38.310547 4.5507812 C 38.588325 4.5507812 38.82053 4.5169269 39.009766 4.4492188 C 39.199001 4.3797744 39.350043 4.2860241 39.462891 4.1679688 C 39.577474 4.0499133 39.660591 3.9147133 39.710938 3.7636719 C 39.761284 3.6108943 39.787109 3.4518226 39.787109 3.2851562 C 39.787109 2.9153652 39.672959 2.6260847 39.447266 2.4160156 C 39.221571 2.2042104 38.864366 2.0976562 38.373047 2.0976562 L 37.15625 2.0976562 z M 40.505859 2.0976562 L 40.505859 5.9042969 L 41.3125 5.9042969 L 41.3125 2.0976562 L 40.505859 2.0976562 z M 42.271484 2.0976562 L 42.271484 5.9042969 L 43.349609 5.9042969 C 43.787108 5.9042969 44.159939 5.8335501 44.470703 5.6894531 C 44.781467 5.54362 45.018447 5.3274735 45.181641 5.0410156 C 45.346571 4.7528216 45.429688 4.3936625 45.429688 3.9648438 C 45.429687 3.5568583 45.348959 3.2154944 45.1875 2.9394531 C 45.026042 2.6616758 44.799262 2.4511717 44.505859 2.3105469 C 44.212457 2.168186 43.866102 2.0976562 43.466797 2.0976562 L 42.271484 2.0976562 z M 12.111328 2.6738281 C 12.128688 2.7450086 12.151908 2.8285592 12.179688 2.9257812 C 12.209201 3.0212672 12.237845 3.1152345 12.265625 3.2089844 C 12.295138 3.3009979 12.318578 3.3765189 12.335938 3.4355469 L 12.611328 4.3222656 L 11.619141 4.3222656 L 11.892578 3.4355469 C 11.904731 3.3956164 11.925345 3.330078 11.953125 3.2363281 C 11.980905 3.1425782 12.009549 3.0436196 12.039062 2.9394531 C 12.070316 2.8335506 12.093968 2.7450086 12.111328 2.6738281 z M 19.951172 2.7597656 L 20.375 2.7597656 C 20.605902 2.7597656 20.774957 2.7912328 20.880859 2.8554688 C 20.988499 2.9179686 21.041016 3.0221356 21.041016 3.1679688 C 21.041016 3.3120657 20.996528 3.4214411 20.90625 3.4960938 C 20.815973 3.5690103 20.654297 3.6054688 20.419922 3.6054688 L 19.951172 3.6054688 L 19.951172 2.7597656 z M 37.962891 2.7597656 L 38.330078 2.7597656 C 38.548828 2.7597656 38.710287 2.8044706 38.814453 2.8964844 C 38.91862 2.986762 38.970703 3.1269534 38.970703 3.3144531 C 38.970703 3.4481335 38.941626 3.5575088 38.880859 3.6425781 C 38.820095 3.7276473 38.734158 3.7901475 38.623047 3.8300781 C 38.511936 3.8700088 38.379557 3.8886719 38.228516 3.8886719 L 37.962891 3.8886719 L 37.962891 2.7597656 z M 43.078125 2.7597656 L 43.507812 2.7597656 C 43.743923 2.7597656 43.94184 2.8018664 44.101562 2.8886719 C 44.26302 2.9754773 44.3852 3.1106776 44.466797 3.2929688 C 44.55013 3.473524 44.591797 3.7050786 44.591797 3.9863281 C 44.591797 4.4012582 44.495443 4.713759 44.302734 4.9238281 C 44.111763 5.1338972 43.817924 5.2382812 43.423828 5.2382812 L 43.078125 5.2382812 L 43.078125 2.7597656 z M 19.951172 4.2460938 L 20.451172 4.2460938 C 20.623047 4.2460937 20.756294 4.26671 20.853516 4.3066406 C 20.952474 4.3465711 21.022787 4.4014758 21.064453 4.4726562 C 21.10612 4.5438367 21.126953 4.6269533 21.126953 4.7207031 C 21.126953 4.878689 21.079861 5.0039064 20.984375 5.0976562 C 20.888889 5.1914061 20.719618 5.2382812 20.476562 5.2382812 L 19.951172 5.2382812 L 19.951172 4.2460938 z " /><path
       id="path1094"
       style="opacity:1;fill:none;stroke:#000000;stroke-width:1;stroke-linecap:round;stroke-linejoin:round;stroke-miterlimit:10"
       d="m 30,45 1,3 M 47,33 c -1.103401,3.71997 -1.383974,7.832319 -0.5,12.5 m 1.5,0 C 45.783182,45.40689 43.011092,45.970626 39,48 M 10,19 c 0,0 0,6 3,5 3,-1 0,-5.5 0,-5.5 M 28,12 c -0.636197,2.282597 1,6 4,5 3,-1 2.999719,-5.419834 1.5,-8.5 M 11,25 C 6,21 11,15 15,20 M 27,13 C 29,7 39.594161,5.7787228 37,13 M 7,33 8.5,32 M 18,31 c 5.038398,5.955695 7.255629,-0.700423 10,-5 M 28,6 c -0.689386,1.9052854 -1.440739,3.8873163 -5,6 M 8,14 c 1.1142915,1.165721 2.955393,1.236195 5,1 M 9,27 c 0,1.761761 -1,6 0,8 1,2 7,9 16,10 9,1 18.972081,-8.351446 23,-13.5 M 6,24 C 5.86143,26.682356 5.6826739,29.280891 7,35 4.3737111,36.643769 2.6622824,35.72224 1,36 1.6046547,28.754883 2.2438752,22.761206 3,21 M 0,18 9,27 C 7.5843705,21.241129 5.7476447,16.076076 8,9.5 M 1,0 C 4.8789506,7.4239491 9.9222382,13.55705 21,13 18.276654,8.7848763 16.969254,4.4113521 16,0 m 1,0 C 28.795564,6.508595 38.85016,9.2366443 48,10 M 42.5,9.5 c 1.184696,5.466621 -1.508019,10.024043 -8.5,14.5 4.705376,0.409837 9.525008,2.029383 14,0"
       mask="url(#mask1344)" /></g></svg>
